<?xml version="1.0" encoding="UTF-8"?>
<svg version="1.1" viewBox="0 0 232.19 165.8" xmlns="http://www.w3.org/2000/svg">
 <path d="m184.19 0-45.9 46 16.9 16.9 4.2-4.3-4.2-7.1 24-24-5.7-5.7 16.3-16.2zm-142 4c-3 0-6 3-6 6v62c0 3 3 6 6 6h56.5l5.5-8v-20h-4v20h-4v-20h-4v20h-4v-20h-4v20h-4v-20h-4v20h-4v-20h-4v20h-4v-20h-4v20h-14l-2-2v-14l2-1v-11l-2-1v-11l2-2h15l0.5-8h7.5l1-8h24l1 8h7.5l0.5 8h15l2 2v11l-2 1v7l3-4.5 7-5.5v-29c0-3-3-6-6-6zm150.4 4.4-14.2 14.1 2.8 2.8 14.1-14.2zm5.7 5.7-14.2 14.1 2.8 2.8 14.1-14.2zm5.7 5.7-14.2 14.1 2.8 2.8 14.1-14.2zm5.6 5.6-14.2 14.1 2.8 2.8 14.1-14.2zm-27.6 4.9-21.9 21.9 4.3 7.1-19.8 19.8 8.5 8.5 19.8-19.8 7.1 4.2 21.9-21.9zm33.3 0.7-14.2 14.1 2.8 2.8 14.1-14.2zm5.7 5.7-14.2 14.2 2.8 2.8 14.1-14.2zm5.7 5.7-16.3 16.3-5.8-5.8-24 24.1-7.1-4.3-4.3 4.3 17 17 46-46zm-94.8 1.4-6.4 5-15.8 23.8 17.9 17.9-4.3 4.2-17.1-17-4.5 6.8 15.9 15.9-4.2 4.3-15.1-15-4.5 6.8 13.9 13.9-4.3 4.3-13-13-4.5 6.8 11.9 11.9-4.3 4.3-11.1-11.1-4.5 6.8 9.9 9.9c-42.3 47-99.6-18.3-57.6-66.3v-15c-78 67 13 159.2 71.9 95.2l9.9 9.9 6.8-4.5-11-11.1 4.2-4.2 11.9 11.9 6.8-4.5-13.1-13 4.3-4.3 13.9 13.9 6.8-4.5-15.1-15 4.3-4.3 15.9 15.9 6.8-4.5-17.1-17.1 4.3-4.3 17.9 17.9 23.8-15.8 4.9-6.4-21.2-21.2-16.3 16.3-14.2-14.2 16.3-16.3z"/>
</svg>
